<svg width="50" height="50" viewBox="0 0 50 50" fill="none" xmlns="http://www.w3.org/2000/svg">
<path d="M23.9723 25.0161L39.5787 9.40913C40.3716 8.61695 40.7672 7.64806 40.7672 6.50258C40.7672 5.35722 40.3715 4.38878 39.5787 3.59671L37.1706 1.18788C36.3789 0.396035 35.4099 0 34.2649 0C33.1198 0 32.1513 0.396035 31.3583 1.18788L10.4209 22.0935C9.62857 22.8857 9.23242 23.8545 9.23242 25.0001C9.23242 26.1456 9.62846 27.1136 10.4209 27.9062L31.3582 48.8118C32.1512 49.604 33.1196 50 34.2648 50C35.4099 50 36.3788 49.604 37.1705 48.8118L39.5786 46.4034C40.3715 45.6117 40.7671 44.6483 40.7671 43.5131C40.7671 42.3787 40.3714 41.4045 39.5786 40.5911L23.9723 25.0161Z" fill="#FFC7A0"/>
</svg>
