<svg width="50" height="50" viewBox="0 0 50 50" fill="none" xmlns="http://www.w3.org/2000/svg">
<path d="M26.0275 24.9839L10.4212 40.5909C9.62823 41.3831 9.23264 42.3519 9.23264 43.4974C9.23264 44.6428 9.62834 45.6112 10.4212 46.4033L12.8292 48.8121C13.621 49.604 14.59 50 15.735 50C16.88 50 17.8486 49.604 18.6416 48.8121L39.579 27.9065C40.3713 27.1143 40.7675 26.1455 40.7675 24.9999C40.7675 23.8544 40.3714 22.8864 39.579 22.0938L18.6417 1.18822C17.8487 0.396036 16.8803 2.08829e-06 15.7351 2.1884e-06C14.59 2.28851e-06 13.6211 0.396037 12.8294 1.18822L10.4213 3.5966C9.62834 4.38834 9.23275 5.35171 9.23275 6.48695C9.23275 7.62129 9.62845 8.59547 10.4213 9.40891L26.0275 24.9839Z" fill="#FFC7A0"/>
</svg>
