<svg width="1980" height="660" viewBox="0 0 1980 660" fill="none" xmlns="http://www.w3.org/2000/svg">
<rect width="1980" height="660" fill="white"/>
<path d="M415.781 480C415.573 479.583 415.404 478.841 415.273 477.773C413.594 479.518 411.589 480.391 409.258 480.391C407.174 480.391 405.462 479.805 404.121 478.633C402.793 477.448 402.129 475.951 402.129 474.141C402.129 471.94 402.962 470.234 404.629 469.023C406.309 467.799 408.665 467.188 411.699 467.188H415.215V465.527C415.215 464.264 414.837 463.262 414.082 462.52C413.327 461.764 412.214 461.387 410.742 461.387C409.453 461.387 408.372 461.712 407.5 462.363C406.628 463.014 406.191 463.802 406.191 464.727H402.559C402.559 463.672 402.93 462.656 403.672 461.68C404.427 460.69 405.443 459.909 406.719 459.336C408.008 458.763 409.421 458.477 410.957 458.477C413.392 458.477 415.299 459.089 416.68 460.312C418.06 461.523 418.776 463.197 418.828 465.332V475.059C418.828 476.999 419.076 478.542 419.57 479.688V480H415.781ZM409.785 477.246C410.918 477.246 411.992 476.953 413.008 476.367C414.023 475.781 414.759 475.02 415.215 474.082V469.746H412.383C407.956 469.746 405.742 471.042 405.742 473.633C405.742 474.766 406.12 475.651 406.875 476.289C407.63 476.927 408.6 477.246 409.785 477.246ZM438.027 461.426C439.629 459.46 441.712 458.477 444.277 458.477C448.743 458.477 450.996 460.996 451.035 466.035V480H447.422V466.016C447.409 464.492 447.057 463.366 446.367 462.637C445.69 461.908 444.629 461.543 443.184 461.543C442.012 461.543 440.983 461.855 440.098 462.48C439.212 463.105 438.522 463.926 438.027 464.941V480H434.414V450H438.027V461.426ZM469.492 480C469.284 479.583 469.115 478.841 468.984 477.773C467.305 479.518 465.299 480.391 462.969 480.391C460.885 480.391 459.173 479.805 457.832 478.633C456.504 477.448 455.84 475.951 455.84 474.141C455.84 471.94 456.673 470.234 458.34 469.023C460.02 467.799 462.376 467.188 465.41 467.188H468.926V465.527C468.926 464.264 468.548 463.262 467.793 462.52C467.038 461.764 465.924 461.387 464.453 461.387C463.164 461.387 462.083 461.712 461.211 462.363C460.339 463.014 459.902 463.802 459.902 464.727H456.27C456.27 463.672 456.641 462.656 457.383 461.68C458.138 460.69 459.154 459.909 460.43 459.336C461.719 458.763 463.132 458.477 464.668 458.477C467.103 458.477 469.01 459.089 470.391 460.312C471.771 461.523 472.487 463.197 472.539 465.332V475.059C472.539 476.999 472.786 478.542 473.281 479.688V480H469.492ZM463.496 477.246C464.629 477.246 465.703 476.953 466.719 476.367C467.734 475.781 468.47 475.02 468.926 474.082V469.746H466.094C461.667 469.746 459.453 471.042 459.453 473.633C459.453 474.766 459.831 475.651 460.586 476.289C461.341 476.927 462.311 477.246 463.496 477.246ZM490.508 474.395C490.508 473.418 490.137 472.663 489.395 472.129C488.665 471.582 487.383 471.113 485.547 470.723C483.724 470.332 482.272 469.863 481.191 469.316C480.124 468.77 479.329 468.118 478.809 467.363C478.301 466.608 478.047 465.71 478.047 464.668C478.047 462.936 478.776 461.471 480.234 460.273C481.706 459.076 483.581 458.477 485.859 458.477C488.255 458.477 490.195 459.095 491.68 460.332C493.177 461.569 493.926 463.151 493.926 465.078H490.293C490.293 464.089 489.87 463.236 489.023 462.52C488.19 461.803 487.135 461.445 485.859 461.445C484.544 461.445 483.516 461.732 482.773 462.305C482.031 462.878 481.66 463.626 481.66 464.551C481.66 465.423 482.005 466.081 482.695 466.523C483.385 466.966 484.629 467.389 486.426 467.793C488.236 468.197 489.701 468.678 490.82 469.238C491.94 469.798 492.767 470.475 493.301 471.27C493.848 472.051 494.121 473.008 494.121 474.141C494.121 476.029 493.366 477.546 491.855 478.691C490.345 479.824 488.385 480.391 485.977 480.391C484.284 480.391 482.786 480.091 481.484 479.492C480.182 478.893 479.16 478.06 478.418 476.992C477.689 475.911 477.324 474.746 477.324 473.496H480.938C481.003 474.707 481.484 475.671 482.383 476.387C483.294 477.09 484.492 477.441 485.977 477.441C487.344 477.441 488.438 477.168 489.258 476.621C490.091 476.061 490.508 475.319 490.508 474.395ZM511.133 474.395C511.133 473.418 510.762 472.663 510.02 472.129C509.29 471.582 508.008 471.113 506.172 470.723C504.349 470.332 502.897 469.863 501.816 469.316C500.749 468.77 499.954 468.118 499.434 467.363C498.926 466.608 498.672 465.71 498.672 464.668C498.672 462.936 499.401 461.471 500.859 460.273C502.331 459.076 504.206 458.477 506.484 458.477C508.88 458.477 510.82 459.095 512.305 460.332C513.802 461.569 514.551 463.151 514.551 465.078H510.918C510.918 464.089 510.495 463.236 509.648 462.52C508.815 461.803 507.76 461.445 506.484 461.445C505.169 461.445 504.141 461.732 503.398 462.305C502.656 462.878 502.285 463.626 502.285 464.551C502.285 465.423 502.63 466.081 503.32 466.523C504.01 466.966 505.254 467.389 507.051 467.793C508.861 468.197 510.326 468.678 511.445 469.238C512.565 469.798 513.392 470.475 513.926 471.27C514.473 472.051 514.746 473.008 514.746 474.141C514.746 476.029 513.991 477.546 512.48 478.691C510.97 479.824 509.01 480.391 506.602 480.391C504.909 480.391 503.411 480.091 502.109 479.492C500.807 478.893 499.785 478.06 499.043 476.992C498.314 475.911 497.949 474.746 497.949 473.496H501.562C501.628 474.707 502.109 475.671 503.008 476.387C503.919 477.09 505.117 477.441 506.602 477.441C507.969 477.441 509.062 477.168 509.883 476.621C510.716 476.061 511.133 475.319 511.133 474.395ZM523.379 480H519.766V450H523.379V480ZM537.949 480.391C535.085 480.391 532.754 479.453 530.957 477.578C529.16 475.69 528.262 473.171 528.262 470.02V469.355C528.262 467.259 528.659 465.391 529.453 463.75C530.26 462.096 531.38 460.807 532.812 459.883C534.258 458.945 535.82 458.477 537.5 458.477C540.247 458.477 542.383 459.382 543.906 461.191C545.43 463.001 546.191 465.592 546.191 468.965V470.469H531.875C531.927 472.552 532.533 474.238 533.691 475.527C534.863 476.803 536.348 477.441 538.145 477.441C539.421 477.441 540.501 477.181 541.387 476.66C542.272 476.139 543.047 475.449 543.711 474.59L545.918 476.309C544.147 479.03 541.491 480.391 537.949 480.391ZM537.5 461.445C536.042 461.445 534.818 461.979 533.828 463.047C532.839 464.102 532.227 465.586 531.992 467.5H542.578V467.227C542.474 465.391 541.979 463.971 541.094 462.969C540.208 461.953 539.01 461.445 537.5 461.445ZM557.91 469.395H548.379V466.445H557.91V469.395ZM563.223 480V461.66H559.883V458.867H563.223V456.699C563.223 454.434 563.828 452.682 565.039 451.445C566.25 450.208 567.962 449.59 570.176 449.59C571.009 449.59 571.836 449.701 572.656 449.922L572.461 452.852C571.849 452.734 571.198 452.676 570.508 452.676C569.336 452.676 568.431 453.021 567.793 453.711C567.155 454.388 566.836 455.365 566.836 456.641V458.867H571.348V461.66H566.836V480H563.223ZM585.566 462.109C585.02 462.018 584.427 461.973 583.789 461.973C581.419 461.973 579.811 462.982 578.965 465V480H575.352V458.867H578.867L578.926 461.309C580.111 459.421 581.79 458.477 583.965 458.477C584.668 458.477 585.202 458.568 585.566 458.75V462.109ZM597.285 480.391C594.421 480.391 592.09 479.453 590.293 477.578C588.496 475.69 587.598 473.171 587.598 470.02V469.355C587.598 467.259 587.995 465.391 588.789 463.75C589.596 462.096 590.716 460.807 592.148 459.883C593.594 458.945 595.156 458.477 596.836 458.477C599.583 458.477 601.719 459.382 603.242 461.191C604.766 463.001 605.527 465.592 605.527 468.965V470.469H591.211C591.263 472.552 591.868 474.238 593.027 475.527C594.199 476.803 595.684 477.441 597.48 477.441C598.757 477.441 599.837 477.181 600.723 476.66C601.608 476.139 602.383 475.449 603.047 474.59L605.254 476.309C603.483 479.03 600.827 480.391 597.285 480.391ZM596.836 461.445C595.378 461.445 594.154 461.979 593.164 463.047C592.174 464.102 591.562 465.586 591.328 467.5H601.914V467.227C601.81 465.391 601.315 463.971 600.43 462.969C599.544 461.953 598.346 461.445 596.836 461.445ZM618.496 480.391C615.632 480.391 613.301 479.453 611.504 477.578C609.707 475.69 608.809 473.171 608.809 470.02V469.355C608.809 467.259 609.206 465.391 610 463.75C610.807 462.096 611.927 460.807 613.359 459.883C614.805 458.945 616.367 458.477 618.047 458.477C620.794 458.477 622.93 459.382 624.453 461.191C625.977 463.001 626.738 465.592 626.738 468.965V470.469H612.422C612.474 472.552 613.079 474.238 614.238 475.527C615.41 476.803 616.895 477.441 618.691 477.441C619.967 477.441 621.048 477.181 621.934 476.66C622.819 476.139 623.594 475.449 624.258 474.59L626.465 476.309C624.694 479.03 622.038 480.391 618.496 480.391ZM618.047 461.445C616.589 461.445 615.365 461.979 614.375 463.047C613.385 464.102 612.773 465.586 612.539 467.5H623.125V467.227C623.021 465.391 622.526 463.971 621.641 462.969C620.755 461.953 619.557 461.445 618.047 461.445ZM653.164 474.395C653.164 473.418 652.793 472.663 652.051 472.129C651.322 471.582 650.039 471.113 648.203 470.723C646.38 470.332 644.928 469.863 643.848 469.316C642.78 468.77 641.986 468.118 641.465 467.363C640.957 466.608 640.703 465.71 640.703 464.668C640.703 462.936 641.432 461.471 642.891 460.273C644.362 459.076 646.237 458.477 648.516 458.477C650.911 458.477 652.852 459.095 654.336 460.332C655.833 461.569 656.582 463.151 656.582 465.078H652.949C652.949 464.089 652.526 463.236 651.68 462.52C650.846 461.803 649.792 461.445 648.516 461.445C647.201 461.445 646.172 461.732 645.43 462.305C644.688 462.878 644.316 463.626 644.316 464.551C644.316 465.423 644.661 466.081 645.352 466.523C646.042 466.966 647.285 467.389 649.082 467.793C650.892 468.197 652.357 468.678 653.477 469.238C654.596 469.798 655.423 470.475 655.957 471.27C656.504 472.051 656.777 473.008 656.777 474.141C656.777 476.029 656.022 477.546 654.512 478.691C653.001 479.824 651.042 480.391 648.633 480.391C646.94 480.391 645.443 480.091 644.141 479.492C642.839 478.893 641.816 478.06 641.074 476.992C640.345 475.911 639.98 474.746 639.98 473.496H643.594C643.659 474.707 644.141 475.671 645.039 476.387C645.951 477.09 647.148 477.441 648.633 477.441C650 477.441 651.094 477.168 651.914 476.621C652.747 476.061 653.164 475.319 653.164 474.395ZM665.41 480H661.797V458.867H665.41V480ZM661.504 453.262C661.504 452.676 661.68 452.181 662.031 451.777C662.396 451.374 662.93 451.172 663.633 451.172C664.336 451.172 664.87 451.374 665.234 451.777C665.599 452.181 665.781 452.676 665.781 453.262C665.781 453.848 665.599 454.336 665.234 454.727C664.87 455.117 664.336 455.312 663.633 455.312C662.93 455.312 662.396 455.117 662.031 454.727C661.68 454.336 661.504 453.848 661.504 453.262ZM676.113 453.75V458.867H680.059V461.66H676.113V474.766C676.113 475.612 676.289 476.25 676.641 476.68C676.992 477.096 677.591 477.305 678.438 477.305C678.854 477.305 679.427 477.227 680.156 477.07V480C679.206 480.26 678.281 480.391 677.383 480.391C675.768 480.391 674.551 479.902 673.73 478.926C672.91 477.949 672.5 476.562 672.5 474.766V461.66H668.652V458.867H672.5V453.75H676.113ZM693.066 480.391C690.202 480.391 687.871 479.453 686.074 477.578C684.277 475.69 683.379 473.171 683.379 470.02V469.355C683.379 467.259 683.776 465.391 684.57 463.75C685.378 462.096 686.497 460.807 687.93 459.883C689.375 458.945 690.938 458.477 692.617 458.477C695.365 458.477 697.5 459.382 699.023 461.191C700.547 463.001 701.309 465.592 701.309 468.965V470.469H686.992C687.044 472.552 687.65 474.238 688.809 475.527C689.98 476.803 691.465 477.441 693.262 477.441C694.538 477.441 695.618 477.181 696.504 476.66C697.389 476.139 698.164 475.449 698.828 474.59L701.035 476.309C699.264 479.03 696.608 480.391 693.066 480.391ZM692.617 461.445C691.159 461.445 689.935 461.979 688.945 463.047C687.956 464.102 687.344 465.586 687.109 467.5H697.695V467.227C697.591 465.391 697.096 463.971 696.211 462.969C695.326 461.953 694.128 461.445 692.617 461.445ZM717.207 480V461.66H713.867V458.867H717.207V456.699C717.207 454.434 717.812 452.682 719.023 451.445C720.234 450.208 721.947 449.59 724.16 449.59C724.993 449.59 725.82 449.701 726.641 449.922L726.445 452.852C725.833 452.734 725.182 452.676 724.492 452.676C723.32 452.676 722.415 453.021 721.777 453.711C721.139 454.388 720.82 455.365 720.82 456.641V458.867H725.332V461.66H720.82V480H717.207ZM728.379 469.238C728.379 467.168 728.783 465.306 729.59 463.652C730.41 461.999 731.543 460.723 732.988 459.824C734.447 458.926 736.107 458.477 737.969 458.477C740.846 458.477 743.171 459.473 744.941 461.465C746.725 463.457 747.617 466.107 747.617 469.414V469.668C747.617 471.725 747.22 473.574 746.426 475.215C745.645 476.842 744.518 478.112 743.047 479.023C741.589 479.935 739.909 480.391 738.008 480.391C735.143 480.391 732.819 479.395 731.035 477.402C729.264 475.41 728.379 472.773 728.379 469.492V469.238ZM732.012 469.668C732.012 472.012 732.552 473.893 733.633 475.312C734.727 476.732 736.185 477.441 738.008 477.441C739.844 477.441 741.302 476.725 742.383 475.293C743.464 473.848 744.004 471.829 744.004 469.238C744.004 466.921 743.451 465.046 742.344 463.613C741.25 462.168 739.792 461.445 737.969 461.445C736.185 461.445 734.746 462.155 733.652 463.574C732.559 464.993 732.012 467.025 732.012 469.668ZM762.363 462.109C761.816 462.018 761.224 461.973 760.586 461.973C758.216 461.973 756.608 462.982 755.762 465V480H752.148V458.867H755.664L755.723 461.309C756.908 459.421 758.587 458.477 760.762 458.477C761.465 458.477 761.999 458.568 762.363 458.75V462.109ZM787.93 474.395C787.93 473.418 787.559 472.663 786.816 472.129C786.087 471.582 784.805 471.113 782.969 470.723C781.146 470.332 779.694 469.863 778.613 469.316C777.546 468.77 776.751 468.118 776.23 467.363C775.723 466.608 775.469 465.71 775.469 464.668C775.469 462.936 776.198 461.471 777.656 460.273C779.128 459.076 781.003 458.477 783.281 458.477C785.677 458.477 787.617 459.095 789.102 460.332C790.599 461.569 791.348 463.151 791.348 465.078H787.715C787.715 464.089 787.292 463.236 786.445 462.52C785.612 461.803 784.557 461.445 783.281 461.445C781.966 461.445 780.938 461.732 780.195 462.305C779.453 462.878 779.082 463.626 779.082 464.551C779.082 465.423 779.427 466.081 780.117 466.523C780.807 466.966 782.051 467.389 783.848 467.793C785.658 468.197 787.122 468.678 788.242 469.238C789.362 469.798 790.189 470.475 790.723 471.27C791.27 472.051 791.543 473.008 791.543 474.141C791.543 476.029 790.788 477.546 789.277 478.691C787.767 479.824 785.807 480.391 783.398 480.391C781.706 480.391 780.208 480.091 778.906 479.492C777.604 478.893 776.582 478.06 775.84 476.992C775.111 475.911 774.746 474.746 774.746 473.496H778.359C778.424 474.707 778.906 475.671 779.805 476.387C780.716 477.09 781.914 477.441 783.398 477.441C784.766 477.441 785.859 477.168 786.68 476.621C787.513 476.061 787.93 475.319 787.93 474.395ZM804.727 477.441C806.016 477.441 807.142 477.051 808.105 476.27C809.069 475.488 809.603 474.512 809.707 473.34H813.125C813.06 474.551 812.643 475.703 811.875 476.797C811.107 477.891 810.078 478.763 808.789 479.414C807.513 480.065 806.159 480.391 804.727 480.391C801.849 480.391 799.557 479.434 797.852 477.52C796.159 475.592 795.312 472.962 795.312 469.629V469.023C795.312 466.966 795.69 465.137 796.445 463.535C797.201 461.934 798.281 460.69 799.688 459.805C801.107 458.919 802.78 458.477 804.707 458.477C807.077 458.477 809.043 459.186 810.605 460.605C812.181 462.025 813.021 463.867 813.125 466.133H809.707C809.603 464.766 809.082 463.646 808.145 462.773C807.22 461.888 806.074 461.445 804.707 461.445C802.871 461.445 801.445 462.109 800.43 463.438C799.427 464.753 798.926 466.66 798.926 469.16V469.844C798.926 472.279 799.427 474.154 800.43 475.469C801.432 476.784 802.865 477.441 804.727 477.441ZM820.801 461.426C822.402 459.46 824.486 458.477 827.051 458.477C831.517 458.477 833.77 460.996 833.809 466.035V480H830.195V466.016C830.182 464.492 829.831 463.366 829.141 462.637C828.464 461.908 827.402 461.543 825.957 461.543C824.785 461.543 823.757 461.855 822.871 462.48C821.986 463.105 821.296 463.926 820.801 464.941V480H817.188V450H820.801V461.426ZM847.988 480.391C845.124 480.391 842.793 479.453 840.996 477.578C839.199 475.69 838.301 473.171 838.301 470.02V469.355C838.301 467.259 838.698 465.391 839.492 463.75C840.299 462.096 841.419 460.807 842.852 459.883C844.297 458.945 845.859 458.477 847.539 458.477C850.286 458.477 852.422 459.382 853.945 461.191C855.469 463.001 856.23 465.592 856.23 468.965V470.469H841.914C841.966 472.552 842.572 474.238 843.73 475.527C844.902 476.803 846.387 477.441 848.184 477.441C849.46 477.441 850.54 477.181 851.426 476.66C852.311 476.139 853.086 475.449 853.75 474.59L855.957 476.309C854.186 479.03 851.53 480.391 847.988 480.391ZM847.539 461.445C846.081 461.445 844.857 461.979 843.867 463.047C842.878 464.102 842.266 465.586 842.031 467.5H852.617V467.227C852.513 465.391 852.018 463.971 851.133 462.969C850.247 461.953 849.049 461.445 847.539 461.445ZM859.551 469.258C859.551 466.016 860.319 463.411 861.855 461.445C863.392 459.466 865.404 458.477 867.891 458.477C870.365 458.477 872.324 459.323 873.77 461.016V450H877.383V480H874.062L873.887 477.734C872.441 479.505 870.43 480.391 867.852 480.391C865.404 480.391 863.405 479.388 861.855 477.383C860.319 475.378 859.551 472.76 859.551 469.531V469.258ZM863.164 469.668C863.164 472.064 863.659 473.939 864.648 475.293C865.638 476.647 867.005 477.324 868.75 477.324C871.042 477.324 872.715 476.296 873.77 474.238V464.531C872.689 462.539 871.029 461.543 868.789 461.543C867.018 461.543 865.638 462.227 864.648 463.594C863.659 464.961 863.164 466.986 863.164 469.668ZM896.055 477.91C894.648 479.564 892.585 480.391 889.863 480.391C887.611 480.391 885.892 479.74 884.707 478.438C883.535 477.122 882.943 475.182 882.93 472.617V458.867H886.543V472.52C886.543 475.723 887.845 477.324 890.449 477.324C893.21 477.324 895.046 476.296 895.957 474.238V458.867H899.57V480H896.133L896.055 477.91ZM909.004 480H905.391V450H909.004V480ZM918.73 480H915.117V458.867H918.73V480ZM914.824 453.262C914.824 452.676 915 452.181 915.352 451.777C915.716 451.374 916.25 451.172 916.953 451.172C917.656 451.172 918.19 451.374 918.555 451.777C918.919 452.181 919.102 452.676 919.102 453.262C919.102 453.848 918.919 454.336 918.555 454.727C918.19 455.117 917.656 455.312 916.953 455.312C916.25 455.312 915.716 455.117 915.352 454.727C915 454.336 914.824 453.848 914.824 453.262ZM927.949 458.867L928.066 461.523C929.681 459.492 931.79 458.477 934.395 458.477C938.861 458.477 941.113 460.996 941.152 466.035V480H937.539V466.016C937.526 464.492 937.174 463.366 936.484 462.637C935.807 461.908 934.746 461.543 933.301 461.543C932.129 461.543 931.1 461.855 930.215 462.48C929.329 463.105 928.639 463.926 928.145 464.941V480H924.531V458.867H927.949ZM945.742 469.258C945.742 465.964 946.504 463.346 948.027 461.406C949.551 459.453 951.569 458.477 954.082 458.477C956.66 458.477 958.672 459.388 960.117 461.211L960.293 458.867H963.594V479.492C963.594 482.227 962.78 484.382 961.152 485.957C959.538 487.533 957.363 488.32 954.629 488.32C953.105 488.32 951.615 487.995 950.156 487.344C948.698 486.693 947.585 485.801 946.816 484.668L948.691 482.5C950.241 484.414 952.135 485.371 954.375 485.371C956.133 485.371 957.5 484.876 958.477 483.887C959.466 482.897 959.961 481.504 959.961 479.707V477.891C958.516 479.557 956.543 480.391 954.043 480.391C951.569 480.391 949.564 479.395 948.027 477.402C946.504 475.41 945.742 472.695 945.742 469.258ZM949.375 469.668C949.375 472.051 949.863 473.926 950.84 475.293C951.816 476.647 953.184 477.324 954.941 477.324C957.22 477.324 958.893 476.289 959.961 474.219V464.57C958.854 462.552 957.194 461.543 954.98 461.543C953.223 461.543 951.849 462.227 950.859 463.594C949.87 464.961 949.375 466.986 949.375 469.668ZM982.383 458.867L982.48 461.211C984.03 459.388 986.12 458.477 988.75 458.477C991.706 458.477 993.717 459.609 994.785 461.875C995.488 460.859 996.4 460.039 997.52 459.414C998.652 458.789 999.987 458.477 1001.52 458.477C1006.16 458.477 1008.52 460.931 1008.59 465.84V480H1004.98V466.055C1004.98 464.544 1004.64 463.418 1003.95 462.676C1003.26 461.921 1002.1 461.543 1000.47 461.543C999.128 461.543 998.014 461.947 997.129 462.754C996.243 463.548 995.729 464.622 995.586 465.977V480H991.953V466.152C991.953 463.079 990.449 461.543 987.441 461.543C985.072 461.543 983.451 462.552 982.578 464.57V480H978.965V458.867H982.383ZM1022.83 480.391C1019.97 480.391 1017.64 479.453 1015.84 477.578C1014.04 475.69 1013.14 473.171 1013.14 470.02V469.355C1013.14 467.259 1013.54 465.391 1014.34 463.75C1015.14 462.096 1016.26 460.807 1017.7 459.883C1019.14 458.945 1020.7 458.477 1022.38 458.477C1025.13 458.477 1027.27 459.382 1028.79 461.191C1030.31 463.001 1031.07 465.592 1031.07 468.965V470.469H1016.76C1016.81 472.552 1017.42 474.238 1018.57 475.527C1019.75 476.803 1021.23 477.441 1023.03 477.441C1024.3 477.441 1025.38 477.181 1026.27 476.66C1027.15 476.139 1027.93 475.449 1028.59 474.59L1030.8 476.309C1029.03 479.03 1026.37 480.391 1022.83 480.391ZM1022.38 461.445C1020.92 461.445 1019.7 461.979 1018.71 463.047C1017.72 464.102 1017.11 465.586 1016.88 467.5H1027.46V467.227C1027.36 465.391 1026.86 463.971 1025.98 462.969C1025.09 461.953 1023.89 461.445 1022.38 461.445ZM1044.04 480.391C1041.18 480.391 1038.85 479.453 1037.05 477.578C1035.25 475.69 1034.36 473.171 1034.36 470.02V469.355C1034.36 467.259 1034.75 465.391 1035.55 463.75C1036.35 462.096 1037.47 460.807 1038.91 459.883C1040.35 458.945 1041.91 458.477 1043.59 458.477C1046.34 458.477 1048.48 459.382 1050 461.191C1051.52 463.001 1052.29 465.592 1052.29 468.965V470.469H1037.97C1038.02 472.552 1038.63 474.238 1039.79 475.527C1040.96 476.803 1042.44 477.441 1044.24 477.441C1045.51 477.441 1046.6 477.181 1047.48 476.66C1048.37 476.139 1049.14 475.449 1049.8 474.59L1052.01 476.309C1050.24 479.03 1047.58 480.391 1044.04 480.391ZM1043.59 461.445C1042.14 461.445 1040.91 461.979 1039.92 463.047C1038.93 464.102 1038.32 465.586 1038.09 467.5H1048.67V467.227C1048.57 465.391 1048.07 463.971 1047.19 462.969C1046.3 461.953 1045.1 461.445 1043.59 461.445ZM1061.39 453.75V458.867H1065.33V461.66H1061.39V474.766C1061.39 475.612 1061.56 476.25 1061.91 476.68C1062.27 477.096 1062.86 477.305 1063.71 477.305C1064.13 477.305 1064.7 477.227 1065.43 477.07V480C1064.48 480.26 1063.55 480.391 1062.66 480.391C1061.04 480.391 1059.82 479.902 1059 478.926C1058.18 477.949 1057.77 476.562 1057.77 474.766V461.66H1053.93V458.867H1057.77V453.75H1061.39ZM1073.5 480H1069.88V458.867H1073.5V480ZM1069.59 453.262C1069.59 452.676 1069.77 452.181 1070.12 451.777C1070.48 451.374 1071.02 451.172 1071.72 451.172C1072.42 451.172 1072.96 451.374 1073.32 451.777C1073.68 452.181 1073.87 452.676 1073.87 453.262C1073.87 453.848 1073.68 454.336 1073.32 454.727C1072.96 455.117 1072.42 455.312 1071.72 455.312C1071.02 455.312 1070.48 455.117 1070.12 454.727C1069.77 454.336 1069.59 453.848 1069.59 453.262ZM1082.71 458.867L1082.83 461.523C1084.45 459.492 1086.56 458.477 1089.16 458.477C1093.63 458.477 1095.88 460.996 1095.92 466.035V480H1092.3V466.016C1092.29 464.492 1091.94 463.366 1091.25 462.637C1090.57 461.908 1089.51 461.543 1088.07 461.543C1086.89 461.543 1085.87 461.855 1084.98 462.48C1084.1 463.105 1083.4 463.926 1082.91 464.941V480H1079.3V458.867H1082.71ZM1100.51 469.258C1100.51 465.964 1101.27 463.346 1102.79 461.406C1104.32 459.453 1106.33 458.477 1108.85 458.477C1111.43 458.477 1113.44 459.388 1114.88 461.211L1115.06 458.867H1118.36V479.492C1118.36 482.227 1117.55 484.382 1115.92 485.957C1114.3 487.533 1112.13 488.32 1109.39 488.32C1107.87 488.32 1106.38 487.995 1104.92 487.344C1103.46 486.693 1102.35 485.801 1101.58 484.668L1103.46 482.5C1105.01 484.414 1106.9 485.371 1109.14 485.371C1110.9 485.371 1112.27 484.876 1113.24 483.887C1114.23 482.897 1114.73 481.504 1114.73 479.707V477.891C1113.28 479.557 1111.31 480.391 1108.81 480.391C1106.33 480.391 1104.33 479.395 1102.79 477.402C1101.27 475.41 1100.51 472.695 1100.51 469.258ZM1104.14 469.668C1104.14 472.051 1104.63 473.926 1105.61 475.293C1106.58 476.647 1107.95 477.324 1109.71 477.324C1111.99 477.324 1113.66 476.289 1114.73 474.219V464.57C1113.62 462.552 1111.96 461.543 1109.75 461.543C1107.99 461.543 1106.61 462.227 1105.62 463.594C1104.64 464.961 1104.14 466.986 1104.14 469.668ZM1136.13 474.395C1136.13 473.418 1135.76 472.663 1135.02 472.129C1134.29 471.582 1133.01 471.113 1131.17 470.723C1129.35 470.332 1127.9 469.863 1126.82 469.316C1125.75 468.77 1124.95 468.118 1124.43 467.363C1123.93 466.608 1123.67 465.71 1123.67 464.668C1123.67 462.936 1124.4 461.471 1125.86 460.273C1127.33 459.076 1129.21 458.477 1131.48 458.477C1133.88 458.477 1135.82 459.095 1137.3 460.332C1138.8 461.569 1139.55 463.151 1139.55 465.078H1135.92C1135.92 464.089 1135.49 463.236 1134.65 462.52C1133.82 461.803 1132.76 461.445 1131.48 461.445C1130.17 461.445 1129.14 461.732 1128.4 462.305C1127.66 462.878 1127.29 463.626 1127.29 464.551C1127.29 465.423 1127.63 466.081 1128.32 466.523C1129.01 466.966 1130.25 467.389 1132.05 467.793C1133.86 468.197 1135.33 468.678 1136.45 469.238C1137.57 469.798 1138.39 470.475 1138.93 471.27C1139.47 472.051 1139.75 473.008 1139.75 474.141C1139.75 476.029 1138.99 477.546 1137.48 478.691C1135.97 479.824 1134.01 480.391 1131.6 480.391C1129.91 480.391 1128.41 480.091 1127.11 479.492C1125.81 478.893 1124.79 478.06 1124.04 476.992C1123.31 475.911 1122.95 474.746 1122.95 473.496H1126.56C1126.63 474.707 1127.11 475.671 1128.01 476.387C1128.92 477.09 1130.12 477.441 1131.6 477.441C1132.97 477.441 1134.06 477.168 1134.88 476.621C1135.72 476.061 1136.13 475.319 1136.13 474.395Z" fill="#F6906C"/>
<path d="M449.375 408.594L457.031 368.125H468.711L456.094 425H444.297L435.039 386.953L425.781 425H413.984L401.367 368.125H413.047L420.742 408.516L430.117 368.125H440.039L449.375 408.594ZM485.352 387.344C488.346 383.75 492.109 381.953 496.641 381.953C505.807 381.953 510.456 387.279 510.586 397.93V425H499.297V398.242C499.297 395.82 498.776 394.036 497.734 392.891C496.693 391.719 494.961 391.133 492.539 391.133C489.232 391.133 486.836 392.409 485.352 394.961V425H474.062V365H485.352V387.344ZM538.555 425.781C532.357 425.781 527.305 423.88 523.398 420.078C519.518 416.276 517.578 411.211 517.578 404.883V403.789C517.578 399.544 518.398 395.755 520.039 392.422C521.68 389.062 523.997 386.484 526.992 384.688C530.013 382.865 533.451 381.953 537.305 381.953C543.086 381.953 547.63 383.776 550.938 387.422C554.271 391.068 555.938 396.237 555.938 402.93V407.539H529.023C529.388 410.299 530.482 412.513 532.305 414.18C534.154 415.846 536.484 416.68 539.297 416.68C543.646 416.68 547.044 415.104 549.492 411.953L555.039 418.164C553.346 420.56 551.055 422.435 548.164 423.789C545.273 425.117 542.07 425.781 538.555 425.781ZM537.266 391.094C535.026 391.094 533.203 391.849 531.797 393.359C530.417 394.87 529.531 397.031 529.141 399.844H544.844V398.945C544.792 396.445 544.115 394.518 542.812 393.164C541.51 391.784 539.661 391.094 537.266 391.094ZM572.773 382.734L573.125 387.617C576.146 383.841 580.195 381.953 585.273 381.953C589.753 381.953 593.086 383.268 595.273 385.898C597.461 388.529 598.581 392.461 598.633 397.695V425H587.344V397.969C587.344 395.573 586.823 393.841 585.781 392.773C584.74 391.68 583.008 391.133 580.586 391.133C577.409 391.133 575.026 392.487 573.438 395.195V425H562.148V382.734H572.773ZM652.617 406.055C652.174 412.174 649.909 416.992 645.82 420.508C641.758 424.023 636.393 425.781 629.727 425.781C622.435 425.781 616.693 423.333 612.5 418.438C608.333 413.516 606.25 406.771 606.25 398.203V394.727C606.25 389.258 607.214 384.44 609.141 380.273C611.068 376.107 613.815 372.917 617.383 370.703C620.977 368.464 625.143 367.344 629.883 367.344C636.445 367.344 641.732 369.102 645.742 372.617C649.753 376.133 652.07 381.068 652.695 387.422H640.977C640.69 383.75 639.661 381.094 637.891 379.453C636.146 377.786 633.477 376.953 629.883 376.953C625.977 376.953 623.047 378.359 621.094 381.172C619.167 383.958 618.177 388.294 618.125 394.18V398.477C618.125 404.622 619.049 409.115 620.898 411.953C622.773 414.792 625.716 416.211 629.727 416.211C633.346 416.211 636.042 415.391 637.812 413.75C639.609 412.083 640.638 409.518 640.898 406.055H652.617ZM684.062 425C683.542 423.984 683.164 422.721 682.93 421.211C680.195 424.258 676.641 425.781 672.266 425.781C668.125 425.781 664.688 424.583 661.953 422.188C659.245 419.792 657.891 416.771 657.891 413.125C657.891 408.646 659.544 405.208 662.852 402.812C666.185 400.417 670.99 399.206 677.266 399.18H682.461V396.758C682.461 394.805 681.953 393.242 680.938 392.07C679.948 390.898 678.372 390.312 676.211 390.312C674.31 390.312 672.812 390.768 671.719 391.68C670.651 392.591 670.117 393.841 670.117 395.43H658.828C658.828 392.982 659.583 390.716 661.094 388.633C662.604 386.549 664.74 384.922 667.5 383.75C670.26 382.552 673.359 381.953 676.797 381.953C682.005 381.953 686.133 383.268 689.18 385.898C692.253 388.503 693.789 392.174 693.789 396.914V415.234C693.815 419.245 694.375 422.279 695.469 424.336V425H684.062ZM674.727 417.148C676.393 417.148 677.93 416.784 679.336 416.055C680.742 415.299 681.784 414.297 682.461 413.047V405.781H678.242C672.591 405.781 669.583 407.734 669.219 411.641L669.18 412.305C669.18 413.711 669.674 414.87 670.664 415.781C671.654 416.693 673.008 417.148 674.727 417.148ZM712.852 382.734L713.203 387.617C716.224 383.841 720.273 381.953 725.352 381.953C729.831 381.953 733.164 383.268 735.352 385.898C737.539 388.529 738.659 392.461 738.711 397.695V425H727.422V397.969C727.422 395.573 726.901 393.841 725.859 392.773C724.818 391.68 723.086 391.133 720.664 391.133C717.487 391.133 715.104 392.487 713.516 395.195V425H702.227V382.734H712.852ZM792.344 408.594L800 368.125H811.68L799.062 425H787.266L778.008 386.953L768.75 425H756.953L744.336 368.125H756.016L763.711 408.516L773.086 368.125H783.008L792.344 408.594ZM835.508 425.781C829.31 425.781 824.258 423.88 820.352 420.078C816.471 416.276 814.531 411.211 814.531 404.883V403.789C814.531 399.544 815.352 395.755 816.992 392.422C818.633 389.062 820.951 386.484 823.945 384.688C826.966 382.865 830.404 381.953 834.258 381.953C840.039 381.953 844.583 383.776 847.891 387.422C851.224 391.068 852.891 396.237 852.891 402.93V407.539H825.977C826.341 410.299 827.435 412.513 829.258 414.18C831.107 415.846 833.438 416.68 836.25 416.68C840.599 416.68 843.997 415.104 846.445 411.953L851.992 418.164C850.299 420.56 848.008 422.435 845.117 423.789C842.227 425.117 839.023 425.781 835.508 425.781ZM834.219 391.094C831.979 391.094 830.156 391.849 828.75 393.359C827.37 394.87 826.484 397.031 826.094 399.844H841.797V398.945C841.745 396.445 841.068 394.518 839.766 393.164C838.464 391.784 836.615 391.094 834.219 391.094ZM870.82 407.539H861.445L860.117 368.125H872.148L870.82 407.539ZM866.133 413.711C868.034 413.711 869.557 414.271 870.703 415.391C871.875 416.51 872.461 417.943 872.461 419.688C872.461 421.406 871.875 422.826 870.703 423.945C869.557 425.065 868.034 425.625 866.133 425.625C864.258 425.625 862.734 425.065 861.562 423.945C860.417 422.826 859.844 421.406 859.844 419.688C859.844 417.969 860.417 416.549 861.562 415.43C862.734 414.284 864.258 413.711 866.133 413.711Z" fill="#B95C3B"/>
</svg>
