<svg width="58" height="58" viewBox="0 0 58 58" fill="none" xmlns="http://www.w3.org/2000/svg">
<path d="M47.1328 12.0494H10.8672C8.73748 12.0494 7 13.7521 7 15.8432V41.135C7 43.2191 8.72975 44.9288 10.8672 44.9288H47.1328C49.2572 44.9288 51 43.2319 51 41.135V15.8432C51 13.7592 49.2702 12.0494 47.1328 12.0494ZM46.5988 14.5786L29.082 31.763L11.4137 14.5786H46.5988ZM9.57812 40.6113V16.3549L21.9943 28.4309L9.57812 40.6113ZM11.4011 42.3996L23.8251 30.2115L28.1784 34.4455C28.6824 34.9357 29.4956 34.9341 29.9975 34.4416L34.2422 30.2775L46.5989 42.3996H11.4011ZM48.4219 40.6112L36.0652 28.4891L48.4219 16.3669V40.6112Z" fill="white"/>
</svg>
