<svg width="58" height="59" viewBox="0 0 58 59" fill="none" xmlns="http://www.w3.org/2000/svg">
<path d="M46.056 37.5209L41.0215 32.5154C39.2235 30.7277 36.1668 31.4428 35.4476 33.7668C34.9082 35.3758 33.1102 36.2696 31.492 35.912C27.8959 35.0181 23.0412 30.3701 22.1422 26.616C21.6028 25.007 22.6816 23.2193 24.2998 22.6831C26.6373 21.968 27.3565 18.9289 25.5585 17.1412L20.524 12.1357C19.0856 10.8843 16.9279 10.8843 15.6693 12.1357L12.2531 15.5323C8.83681 19.1077 12.6127 28.5825 21.0634 36.9846C29.5141 45.3868 39.0437 49.3198 42.6397 45.7443L46.056 42.3477C47.3147 40.9175 47.3147 38.7723 46.056 37.5209Z" fill="white"/>
</svg>
